<svg xmlns="http://www.w3.org/2000/svg" width="256" height="256" viewBox="0 0 256 256" fill="none">
  <defs>
    <filter id="glowE" x="-50%" y="-50%" width="200%" height="200%">
      <feGaussianBlur stdDeviation="3" result="blur"/>
      <feColorMatrix type="matrix" values="0 0 0 0 0.203 0 0 0 0 0.922 0 0 0 0 0.698 0 0 0 1 0" result="color"/>
      <feMerge><feMergeNode in="color"/><feMergeNode in="SourceGraphic"/></feMerge>
    </filter>
    <filter id="glowC" x="-50%" y="-50%" width="200%" height="200%">
      <feGaussianBlur stdDeviation="3" result="blur"/>
      <feColorMatrix type="matrix" values="0 0 0 0 0.133 0 0 0 0 0.824 0 0 0 0 0.977 0 0 0 1 0" result="color"/>
      <feMerge><feMergeNode in="color"/><feMergeNode in="SourceGraphic"/></feMerge>
    </filter>
  </defs>
  <g filter="url(#glowE)">
    <rect x="92" y="48" width="72" height="128" rx="14" stroke="#22c55e" stroke-width="4"/>
    <circle cx="128" cy="72" r="4" fill="#22d3ee"/>
    <rect x="104" y="88" width="48" height="72" rx="6" stroke="#22d3ee" stroke-width="2.5" opacity="0.85"/>
  </g>
  <g filter="url(#glowC)" stroke="#22d3ee" stroke-width="2.5" fill="none" opacity="0.75">
    <path d="M48 88 C64 72, 88 60, 128 56 C168 60, 192 72, 208 88"/>
    <path d="M48 136 C64 152, 88 164, 128 168 C168 164, 192 152, 208 136"/>
    <path d="M32 112 H56 M200 112 H224"/>
  </g>
  <circle cx="128" cy="188" r="6" fill="#34d399" filter="url(#glowC)"/>
</svg>
